<?xml version="1.0" encoding="UTF-8"?>
<svg id="Capa_1" xmlns="http://www.w3.org/2000/svg" version="1.1" xmlns:xlink="http://www.w3.org/1999/xlink" viewBox="0 0 128 128">
  <!-- Generator: Adobe Illustrator 29.8.1, SVG Export Plug-In . SVG Version: 2.1.1 Build 2)  -->
  <defs>
    <style>
      .st0 {
        fill: #222323;
      }

      .st1 {
        fill: #fff;
        filter: url(#outer-glow-1);
      }
    </style>
    <filter id="outer-glow-1" x="2.04" y="19.32" width="124.08" height="89.28" filterUnits="userSpaceOnUse">
      <feOffset dx="0" dy="0"/>
      <feGaussianBlur result="blur" stdDeviation="3"/>
      <feFlood flood-color="#0d9439" flood-opacity=".72"/>
      <feComposite in2="blur" operator="in"/>
      <feComposite in="SourceGraphic"/>
    </filter>
  </defs>
  <rect class="st0" x=".98" y="6.5" width="126.04" height="114.99" rx="5" ry="5"/>
  <path id="x" class="st1" d="M79.85,99.13l-13.51-14.8c-1.25-1.37-3.42-1.35-4.65.04l-13.02,14.75c-.26.29-.65.46-1.06.46H13.8c-1.25,0-1.84-1.4-.92-2.17l37.41-30.97c1.52-1.26,1.51-3.6-.04-4.84L11.57,30.6c-.95-.76-.36-2.18.9-2.18h34.63c.41,0,.79.16,1.05.45l13.52,14.82c1.25,1.37,3.4,1.36,4.64-.03l13.2-14.78c.26-.29.65-.46,1.06-.46h33.81c1.25,0,1.84,1.4.92,2.17l-37.57,30.97c-1.63,1.34-1.61,3.52.03,4.85l38.68,31c.95.76.36,2.18-.9,2.18h-34.63c-.41,0-.79-.16-1.05-.45Z"/>
</svg>