<?xml version="1.0" encoding="UTF-8"?>
<svg id="rankflix-logo"
  xmlns="http://www.w3.org/2000/svg" version="1.1" viewBox="0 0 675.4 184.72">
  <defs>
    <style>
      .rank-letters, .flix-letters {
        fill: #fff;
      }

      .rank-letters {
        opacity: .5;
      }

      .flix-letters {
        opacity: .8;
      }

      .x-letter {
        animation: pulse 3s ease infinite;
      }

      @keyframes pulse {
        0%, 100% { opacity: .8; }
        50% { opacity: 1; }
      }
    </style>
  </defs>
  <path id="r" class="rank-letters" d="M57.34,69.48s-17.84-.1-27.37,12.39c-5.08,6.66-9.37,14.87-9.37,27.91v62.14H6.34V60.68h14.26v19.76c3.12-6.93,7.91-12.29,14.36-16.09,6.45-3.8,14.36-5.7,25.28-5.18l-2.91,10.31Z"/>
  <path id="a" class="rank-letters" d="M51.88,86.05c4.55-8.62,10.86-15.28,18.95-19.97,8.08-4.69,17.21-7.03,27.4-7.03s19.73,2.44,27.4,7.33c7.67,4.89,11.8,8.2,16.6,15.12v-20.82h14.26v111.24h-14.26v-24.65c-3.53,7.61-9.14,13.89-16.81,18.85-7.68,4.96-16.81,7.44-27.4,7.44s-19.12-2.38-27.2-7.13c-8.08-4.75-14.4-11.48-18.95-20.17-4.55-8.69-6.83-18.74-6.83-30.15s2.27-21.42,6.83-30.05ZM136.73,92.67c-3.67-6.79-8.66-12.02-14.97-15.69s-13.28-5.5-20.88-5.5-14.94,1.77-21.19,5.3c-6.25,3.53-11.17,8.66-14.77,15.38-3.6,6.72-5.4,14.7-5.4,23.94s1.8,17.08,5.4,23.94c3.6,6.86,8.52,12.09,14.77,15.69,6.25,3.6,13.31,5.4,21.19,5.4s14.57-1.83,20.88-5.5c6.32-3.67,11.31-8.89,14.97-15.69,3.67-6.79,5.5-14.67,5.5-23.63s-1.83-16.84-5.5-23.63Z"/>
  <path id="n" class="rank-letters" d="M245.32,70.97c8.42,8.22,12.63,20.14,12.63,35.76v65.19h-14.06v-63.56c0-12.09-3.02-21.32-9.07-27.71-6.05-6.38-14.3-9.58-24.75-9.58s-19.29,3.4-25.67,10.19c-6.39,6.79-9.58,16.78-9.58,29.95v60.71h-14.26V60.68h14.26v18.95c3.53-6.79,8.62-11.99,15.28-15.59,6.65-3.6,14.19-5.4,22.61-5.4,13.31,0,24.17,4.11,32.6,12.33Z"/>
  <path id="k" class="rank-letters" d="M321.11,171.92l-45.84-49.91v49.91h-14.26V21.16h14.26v89.23l44.82-49.71h19.97l-52.77,55.41,53.17,55.82h-19.35Z"/>
  <path id="f" class="flix-letters" d="M411.6,90.83h-13.93c-1.1,0-2,.9-2,2v77.09c0,1.1-.9,2-2,2h-36.13c-1.1,0-2-.9-2-2v-77.09c0-1.1-.9-2-2-2h-8.43c-1.1,0-2-.9-2-2v-29.21c0-1.1.9-2,2-2h10.43v-1.02c0-14.67,4.31-25.91,12.94-33.72,8.62-7.81,21.02-11.71,37.18-11.71,2.23,0,4.1.03,5.63.1,1.07.04,1.91.93,1.91,2v29.98c0,1.13-.94,2.05-2.07,2-.71-.03-1.52-.05-2.41-.05-4.35,0-7.54.99-9.58,2.95-1.65,1.6-2.73,3.98-3.22,7.14-.19,1.22.74,2.33,1.98,2.33h13.7c1.1,0,2,.9,2,2v29.21c0,1.1-.9,2-2,2Z"/>
  <path id="l" class="flix-letters" d="M458.66,13.16v156.77c0,1.1-.9,1.99-2,1.99h-35.93c-1.1,0-2-.89-2-1.99V13.16c0-1.1.9-1.99,2-1.99h35.93c1.1,0,2,.89,2,1.99Z"/>
  <path id="i" class="flix-letters" d="M468.35,46.42c-4.28-3.86-6.42-8.7-6.42-14.53s2.14-10.9,6.42-14.83c4.28-3.93,9.95-5.89,17.01-5.89s12.53,1.97,16.81,5.89c4.28,3.93,6.42,8.87,6.42,14.83s-2.14,10.67-6.42,14.53c-4.28,3.86-9.88,5.79-16.81,5.79s-12.73-1.93-17.01-5.79ZM503.92,59.95v109.98c0,1.1-.9,1.99-2,1.99h-35.93c-1.1,0-2-.89-2-1.99V59.95c0-1.1.9-1.99,2-1.99h35.93c1.1,0,2,.89,2,1.99Z"/>
  <path id="x" class="flix-letters x-letter" d="M618.21,171.2l-21.63-23.71c-2.01-2.2-5.47-2.17-7.44.06l-20.85,23.62c-.42.47-1.04.74-1.71.74h-54.16c-2,0-2.95-2.24-1.47-3.47l59.92-49.6c2.44-2.02,2.41-5.77-.06-7.75l-61.96-49.65c-1.52-1.21-.57-3.49,1.45-3.49h55.45c.65,0,1.27.26,1.68.72l21.66,23.73c2,2.19,5.45,2.17,7.42-.04l21.13-23.68c.42-.47,1.04-.74,1.7-.74h54.14c2,0,2.95,2.25,1.47,3.47l-60.16,49.6c-2.61,2.15-2.59,5.64.05,7.76l61.95,49.65c1.52,1.21.57,3.49-1.45,3.49h-55.45c-.65,0-1.27-.26-1.68-.72Z"/>
</svg>